<svg xmlns="http://www.w3.org/2000/svg" version="1.1" xmlns:xlink="http://www.w3.org/1999/xlink" xmlns:svgjs="http://svgjs.dev/svgjs" width="1500" height="1500" viewBox="0 0 1500 1500"><rect width="1500" height="1500" fill="#000000"></rect><g transform="matrix(0.6666666666666666,0,0,0.6666666666666666,249.39393939393938,438.5856950067477)"><svg viewBox="0 0 396 247" data-background-color="#07071c" preserveAspectRatio="xMidYMid meet" height="935" width="1500" xmlns="http://www.w3.org/2000/svg" xmlns:xlink="http://www.w3.org/1999/xlink"><g id="tight-bounds" transform="matrix(1,0,0,1,0.2400000000000091,-0.09999999999999432)"><svg viewBox="0 0 395.52 247.2" height="247.2" width="395.52"><g><svg></svg></g><g><svg viewBox="0 0 395.52 247.2" height="247.2" width="395.52"><g transform="matrix(1,0,0,1,75.54432,56.3070235702086)"><svg viewBox="0 0 244.43135999999998 134.5859528595828" height="134.5859528595828" width="244.43135999999998"><g><svg viewBox="0 0 244.43135999999998 134.5859528595828" height="134.5859528595828" width="244.43135999999998"><g><svg viewBox="0 0 244.43135999999998 134.5859528595828" height="134.5859528595828" width="244.43135999999998"><g><svg viewBox="0 0 244.43135999999998 134.5859528595828" height="134.5859528595828" width="244.43135999999998"><g id="textblocktransform"><svg viewBox="0 0 244.43135999999998 134.5859528595828" height="134.5859528595828" width="244.43135999999998" id="textblock"><g><svg viewBox="0 0 244.43135999999998 80.61631441433164" height="80.61631441433164" width="244.43135999999998"><g transform="matrix(1,0,0,1,0,0)"><svg width="244.43135999999998" viewBox="0.8 -32.55 108.84 35.9" height="80.61631441433164" data-palette-color="#ffffff"><path d="M21.15-2.05L21.15-2.05Q19.95-0.2 19.95 0.35 19.95 0.9 20.4 1.15L20.4 1.15Q20.4 1.2 19.5 1.9L19.5 1.9Q18.7 2.3 17.7 2.3 16.7 2.3 16.25 2.08 15.8 1.85 15.95 1.35L15.95 1.35Q16.65-0.9 21.2-7.68 25.75-14.45 27.3-17.25L27.3-17.25Q30.65-23.3 30.65-26.9L30.65-26.9Q30.65-28.4 30.15-29.45L30.15-29.45Q29.15-31.5 25.4-31.5L25.4-31.5Q19.55-31.5 13.3-26.45L13.3-26.45Q8.3-22.4 5.65-17.88 3-13.35 3-9.8L3-9.8Q3-4.7 7.5-4.6L7.5-4.6Q7.7-4.6 7.9-4.6L7.9-4.6Q13.65-4.6 16.8-8.75L16.8-8.75Q18-10.4 18-11.55 18-12.7 17.5-13L17.5-13Q17.45-13.05 17.45-13.2 17.45-13.35 17.75-13.35L17.75-13.35Q19.05-13.35 19.05-11.65L19.05-11.65Q19.05-10.6 18.03-8.8 17-7 14.4-5.4 11.8-3.8 8.35-3.8 4.9-3.8 2.85-5.95 0.8-8.1 0.8-11.6L0.8-11.6Q0.8-19.5 11.1-27.75L11.1-27.75Q13.75-29.85 18.07-31.2 22.4-32.55 26.35-32.55 30.3-32.55 31.73-31.18 33.15-29.8 33.15-27.5L33.15-27.5Q33.15-24 30.3-18.05L30.3-18.05Q29.4-16.2 26.25-11.3L26.25-11.3 30.1-16.2Q32.9-19.85 39.8-26.6L39.8-26.6Q41.3-28.05 43.13-29.03 44.95-30 46.25-30L46.25-30Q48.05-30 48.05-28.1L48.05-28.1Q48.05-26.45 46.48-23.13 44.9-19.8 43.3-16.82 41.7-13.85 41.35-12.93 41-12 40.85-11.45 40.7-10.9 40.65-10.85L40.65-10.85Q40.8-11.1 43.95-14.68 47.1-18.25 53.25-23.6L53.25-23.6 61.25-30.2Q62.2-31 62.95-31 63.7-31 64.17-29.75 64.65-28.5 64.65-27.73 64.65-26.95 62.25-24.5L62.25-24.5Q56-18.1 51.65-10.5 47.3-2.9 47.3 0.35L47.3 0.35Q47.3 1.2 47.6 1.53 47.9 1.85 48.55 1.73 49.2 1.6 51.28 0.7 53.35-0.2 54-0.35L54-0.35Q54.25-0.25 54.25-0.1L54.25-0.1Q54.25 0.65 51.63 2 49 3.35 47.68 3.35 46.35 3.35 46.05 2.9L46.05 2.9Q45.15 1.6 45.15-0.25L45.15-0.25Q45.15-4.55 49.75-12.6L49.75-12.6Q52.7-17.65 58.85-26.2L58.85-26.2Q54.05-22.3 45.85-14.25 37.65-6.2 35.1-1.65L35.1-1.65Q33.8 0.7 31.95 0.7L31.95 0.7Q31.1 0.7 31.1 0.1L31.1 0.1Q31.1-0.1 32.13-1.7 33.15-3.3 36.65-9.2L36.65-9.2Q45.25-24.15 45.25-27.2L45.25-27.2Q45.25-28 44.7-28L44.7-28Q43.9-28 42.35-26.65L42.35-26.65Q36.8-22 30.55-14.5 24.3-7 21.15-2.05ZM73.4-14.95L73.4-14.95 74.1-15.1Q74.65-15.1 75.15-14.65 75.65-14.2 75.65-13.95 75.65-13.7 72.55-9.13 69.45-4.55 69.45-2.75L69.45-2.75Q69.45-2.6 69.5-2.45L69.5-2.45Q69.75-1.3 70.6-1.3L70.6-1.3Q73.2-1.3 80.1-9.9L80.1-9.9Q80.25-10.1 80.45-10.1 80.65-10.1 80.65-9.73 80.65-9.35 80.2-8.75L80.2-8.75Q73.8-0.2 70.45-0.2L70.45-0.2Q70-0.2 69.6-0.35L69.6-0.35Q67.4-1.2 67.4-3.65L67.4-3.65Q67.4-4.5 67.6-5.35L67.6-5.35 64.5-2.35Q61.55 0.25 60.22 0.25 58.9 0.25 57.7-0.6L57.7-0.6Q56.35-1.6 56.35-3.25L56.35-3.25Q56.35-6.9 61.45-11.98 66.55-17.05 70.8-17.05L70.8-17.05Q72.45-17.05 73-15.9L73-15.9Q73.15-15.5 73.25-15.23 73.35-14.95 73.4-14.95ZM58.45-2.65L58.45-2.65Q58.45-0.85 59.7-0.85L59.7-0.85Q62.6-0.85 67.6-7.2L67.6-7.2 72.9-14.5Q72.5-15.2 71.6-15.2L71.6-15.2Q68.55-15.2 63.5-10.48 58.45-5.75 58.45-2.65ZM89.25-0.2L89.25-0.2Q86.3-0.2 86.3-3.65L86.3-3.65Q86.3-5.6 87.67-7.98 89.05-10.35 91.05-13.55L91.05-13.55Q84.65-10.35 79.45-4.1L79.45-4.1Q76.55 0.25 76.05 0.25L76.05 0.25Q74.6 0.25 74.6-0.6L74.6-0.6Q74.6-1.05 75.2-2.2L75.2-2.2Q80.05-10.85 82.55-14.85L82.55-14.85Q88.5-24.4 90.95-25.2L90.95-25.2Q91.05-25.25 91.15-25.25L91.15-25.25Q91.8-25.25 92.05-24.2L92.05-24.2Q91.9-23.15 86.85-16.6L86.85-16.6Q81.6-9.95 80.9-7.9L80.9-7.9Q82.75-9.25 87.35-12.45L87.35-12.45Q92.3-15.9 93.9-15.9 95.5-15.9 95.5-14.65L95.5-14.65Q95.5-14.45 95.47-14.38 95.45-14.3 92-9.65 88.55-5 88.55-2.8L88.55-2.8Q88.55-1.65 89.4-1.65L89.4-1.65Q92.1-1.75 97.5-8.15L97.5-8.15Q97.95-8.6 98.17-8.6 98.4-8.6 98.4-8.3L98.4-8.3Q98.4-7.3 93.45-2.9L93.45-2.9Q90.35-0.2 89.25-0.2ZM107.04-20.4Q107.79-20.4 108.47-19.93 109.14-19.45 109.14-18.8 109.14-18.15 108.52-17.68 107.89-17.2 107.14-17.2 106.39-17.2 105.77-17.75 105.14-18.3 105.14-19L105.14-19Q105.14-20.4 107.04-20.4L107.04-20.4ZM97.99 0.55L97.99 0.55Q95.44 0.55 95.44-2.75L95.44-2.75Q95.44-5.45 98.39-10.23 101.34-15 103.14-15.05L103.14-15.05Q103.64-15.05 104.27-14.65 104.89-14.25 104.89-13.85L104.89-13.85Q104.64-13.5 104.29-13.08 103.94-12.65 103.54-12.15 103.14-11.65 102.44-10.73 101.74-9.8 101.09-8.95L101.09-8.95Q97.34-4.1 97.34-2.27 97.34-0.45 98.59-0.45L98.59-0.45Q99.64-0.45 101.44-1.6L101.44-1.6Q105.64-4.2 108.09-7.3L108.09-7.3Q108.99-8.45 109.32-8.45 109.64-8.45 109.64-8.05 109.64-7.65 108.49-6.45 107.34-5.25 106.67-4.55 105.99-3.85 105.74-3.63 105.49-3.4 104.82-2.78 104.14-2.15 103.79-1.9 103.44-1.65 102.79-1.15 102.14-0.65 101.64-0.43 101.14-0.2 100.49 0.1L100.49 0.1Q99.44 0.55 97.99 0.55Z" opacity="1" transform="matrix(1,0,0,1,0,0)" fill="#ffffff" class="wordmark-text-0" data-fill-palette-color="primary" id="text-0"></path></svg></g></svg></g><g transform="matrix(1,0,0,1,0,99.6478914560094)"><svg viewBox="0 0 244.43135999999998 34.9380614035734" height="34.9380614035734" width="244.43135999999998"><g transform="matrix(1,0,0,1,0,0)"><svg width="244.43135999999998" viewBox="3.4 -37.8 271.45000000000005 38.8" height="34.9380614035734" data-palette-color="#ffffff"><path d="M5.55 0.1Q4.75 0.1 4.75-1.2L4.75-1.2 4.75-4.9 4.6-7.95Q4.15-16.15 4.15-20L4.15-20Q4.15-22.1 3.6-33.1L3.6-33.1Q3.5-35.5 3.45-36.18 3.4-36.85 3.4-36.9L3.4-36.9 3.4-37.25Q3.4-37.6 3.9-37.7L3.9-37.7Q4.2-37.8 5.65-37.8L5.65-37.8 6.75-37.8 8.15-37.8Q8.55-37.8 8.75-37.48 8.95-37.15 8.95-36.65L8.95-36.65Q8.95-36.15 8.05-36.15L8.05-36.15 6.9-36.2 5.6-36.2Q5.2-36.2 5.1-36.05 5-35.9 5-35.25L5-35.25Q5-34.25 5.35-27.95L5.35-27.95Q5.7-21.65 5.7-20.6L5.7-20.6Q6.3-20.6 7.4-20.9L7.4-20.9Q8.55-21.2 9.1-21.2L9.1-21.2Q9.4-21.2 9.63-20.85 9.85-20.5 9.85-20.2L9.85-20.2Q9.85-19.65 9.05-19.48 8.25-19.3 6.75-19.2L6.75-19.2Q5.7-19.05 5.7-18.6L5.7-18.6Q5.7-16.35 6.2-10.2L6.2-10.2Q6.65-4.6 6.65-1.75L6.65-1.75 6.5-1.5Q6.65-1.15 6.65-0.85L6.65-0.85Q6.65 0.1 5.55 0.1L5.55 0.1ZM24.75 0.85L24.05 0.6Q23.45-0.05 22.75-2.85 22.05-5.65 21.45-9.15L21.45-9.15Q21.05-12 20.3-14.8L20.3-14.8Q19.7-17.3 19.15-17.3L19.15-17.3 19-17.3Q17.9-17.3 17.9-16.6L17.9-16.6Q17.9-13 18.3-5.65L18.3-5.65Q18.5-1.15 18.75-0.4L18.75-0.4 18.35 0.45 17.65 0.45 17.25 0.05Q16.45-23.05 16.45-31.45L16.45-31.45Q16.45-32 16.53-32.35 16.6-32.7 16.85-33L16.85-33Q17.05-33.35 17.55-33.35L17.55-33.35Q20.1-33.35 21.65-32.1 23.2-30.85 23.2-28.5L23.2-28.5 23.2-24.85Q23.2-23.9 22.58-22.3 21.95-20.7 21.2-19.35L21.2-19.35 20.55-18.1Q21.1-15.55 22.73-8.93 24.35-2.3 24.5-1.9L24.5-1.9Q24.55-1.85 24.63-1.65 24.7-1.45 24.95-1.05L24.95-1.05Q25.3-0.35 25.3 0.15L25.3 0.15Q25.3 0.85 24.75 0.85L24.75 0.85ZM18.15-18.55Q19.1-18.55 19.85-19.5 20.6-20.45 21.05-21.95L21.05-21.95Q21.85-25 21.85-26.8L21.85-26.8Q21.85-27.95 21.73-28.7 21.6-29.45 21.3-30.3L21.3-30.3Q20.7-32.05 18.45-32.05L18.45-32.05Q18.2-32.05 18.05-31.63 17.9-31.2 17.9-30.75L17.9-30.75Q17.9-27.4 18-24.7L18-24.7Q18.05-22 18.05-18.65L18.05-18.65 18.15-18.55ZM36.1 0.95Q30.25 0.95 30.25-17.45L30.25-17.45 30.25-19.2Q30.25-33.15 33.85-33.15L33.85-33.15Q34.1-33.15 34.55-33L34.55-33Q36.15-32.45 37.7-32.3L37.7-32.3Q38.65-32.1 39.6-30.35L39.6-30.35Q40.65-28.55 41.18-25.6 41.7-22.65 41.7-19.55L41.7-19.55 41.6-19.3Q41.6-17.65 41.65-16.35L41.65-16.35 41.7-13.35Q41.7-10.8 41.5-8.75L41.5-8.75Q41.2-5.65 40.5-3.4L40.5-3.4Q40.05-2.05 39.48-1.15 38.9-0.25 38.05 0.35L38.05 0.35Q37.25 0.95 36.1 0.95L36.1 0.95ZM35.9-0.5Q37.85-0.5 38.8-3.25L38.8-3.25Q39.75-6.05 39.95-8.95L39.95-8.95Q40.15-11.95 40.15-13.75L40.15-13.75Q40.15-15.75 39.85-19.65L39.85-19.65Q39.6-24 39.6-25.55L39.6-25.55 39.4-25.95 39.5-26.2Q39.5-28.4 38.28-30 37.05-31.6 35.3-31.6L35.3-31.6Q33-31.6 32.55-29.4L32.55-29.4Q32.45-28.65 32.35-27.25L32.35-27.25Q32.35-23.55 32.05-22.2L32.05-22.2Q32.05-21.45 31.9-19.85L31.9-19.85 31.8-17.5Q31.8-16.4 31.85-15.55L31.85-15.55 31.9-13.55Q31.9-11.2 32.3-8.15L32.3-8.15Q32.6-5.9 33-4.35 33.4-2.8 34.15-1.7L34.15-1.7Q34.9-0.5 35.9-0.5L35.9-0.5ZM60.95 0.2Q60.55 0.2 60.38-0.1 60.2-0.4 60.05-1L60.05-1Q60-1.4 59.85-1.7L59.85-1.7 59.9-1.85Q59.5-4.2 58.2-7.6L58.2-7.6 57.3-10.2Q57.2-10.3 56.35-12.75L56.35-12.75 55.95-13.95Q51.45-27.85 50.3-29L50.3-29Q49.9-27.65 49.9-25.5L49.9-25.5Q49.9-24.35 49.95-23.5L49.95-23.5 50-21.55 49.95-20.35Q49.9-19.8 49.9-19.15L49.9-19.15Q49.9-18.05 50-17.25L50-17.25Q50.1-15.65 50.1-15.65L50.1-15.65 49.95-15.65Q49.95-7.3 50.3-6.45L50.3-6.45 50.3-1.95Q50.5-1.55 50.5-0.9L50.5-0.9Q50.5-0.5 50.23-0.2 49.95 0.1 49.55 0.1L49.55 0.1Q48.5 0.1 48.5-2.6L48.5-2.6 48.6-4.2Q48.7-4.95 48.7-5.85L48.7-5.85Q48.7-8.25 48.55-13.05L48.55-13.05Q48.4-17.85 48.4-20.25L48.4-20.25Q48.4-21.7 48.55-24.7L48.55-24.7Q48.7-27.65 48.7-29.1L48.7-29.1 48.7-29.75Q48.7-32.2 49.6-32.95L49.6-32.95 49.75-32.8 50.25-32.9Q50.45-32.85 50.7-32.6L50.7-32.6Q50.9-32.4 50.9-32.15L50.9-32.15 51-31.85Q51-31.75 51.03-31.68 51.05-31.6 51.05-31.6L51.05-31.6Q51.85-28.05 54.65-21.65L54.65-21.65Q57.5-14.9 58.2-12.7L58.2-12.7Q58.7-10.95 59-9.6L59-9.6Q59.95-5.35 61.25-3.05L61.25-3.05 61.35-3.2Q62.5-14.3 62.5-30.45L62.5-30.45 62.45-31.05Q62.4-31.3 62.4-31.7L62.4-31.7Q62.4-32.75 63.1-32.75L63.1-32.75Q63.55-32.75 63.88-32.3 64.2-31.85 64.2-31.3L64.2-31.3 64.2-27.95 63.95-27.55Q63.95-22.8 63.4-11.95 62.85-1.1 62.35-0.15L62.35-0.15 61.5 0.05 61.5 0.1 61.45 0.05 60.95 0.2ZM75.05-0.3L74.5-0.7 74.45-2.55Q74.4-3.35 74.4-4.35L74.4-4.35Q74.4-4.85 74.45-5.2L74.45-5.2 74.5-6.1Q74.5-6.6 74.3-7.3L74.3-7.3Q74.3-10.65 73.8-19.75L73.8-19.75Q73.3-28.55 73.25-31.7L73.25-31.7Q70.15-31.7 69.1-31.85L69.1-31.85Q68.1-32.1 68.1-32.65L68.1-32.65Q68.35-33.2 69.05-33.2L69.05-33.2Q70.55-33.2 73.4-33L73.4-33Q76-32.75 77.75-32.75L77.75-32.75 78.8-32.75 79.85-32.8Q80.75-32.8 80.75-32.15L80.75-32.15Q80.75-31.85 80.43-31.68 80.1-31.5 79.65-31.5L79.65-31.5Q78.65-31.5 77.55-31.6L77.55-31.6 75.4-31.7Q75.2-31.7 75.2-31.55L75.2-31.55Q75.15-31.4 75.15-30.6L75.15-30.6Q75.15-25.75 75.75-15.9L75.75-15.9Q76.3-5.7 76.3-1.25L76.3-1.25Q76.3-0.9 75.88-0.6 75.45-0.3 75.05-0.3L75.05-0.3ZM87 0.65Q86.1 0.65 86-0.4L86-0.4 86-1.05Q86.05-1.3 86.05-1.65L86.05-1.65 85.85-1.85Q86.25-2.9 86.25-3.9L86.25-3.9Q86.25-5.05 86.1-7.2L86.1-7.2 86-10.5Q86-13 86.15-18L86.15-18Q86.35-22.45 86.35-25.55L86.35-25.55 86.25-28.55Q86.15-29.9 86.15-31.55L86.15-31.55Q86.15-32.3 86.5-32.63 86.85-32.95 87.6-32.95L87.6-32.95Q88.1-32.95 88.4-32.65L88.4-32.65Q88.5-32.6 89.85-32.45L89.85-32.45Q91.1-32.3 92-32L92-32Q92.95-31.7 92.95-31.25L92.95-31.25Q92.95-30.75 92-30.25L92-30.25Q89.15-31.2 87.95-31.2L87.95-31.2 87.7-30.9Q87.75-30.45 87.75-28.75L87.75-28.75Q87.75-26.6 87.65-24.9L87.65-24.9Q87.6-23.15 87.6-21L87.6-21Q87.6-19.6 88.3-19.6L88.3-19.6 89.1-19.65Q89.5-19.7 89.95-19.7L89.95-19.7Q91.9-19.7 91.9-18.8L91.9-18.8Q91.9-18.25 91.65-17.88 91.4-17.5 90.9-17.5L90.9-17.5Q90.15-17.5 89.75-17.9L89.75-17.9 88.15-18.15 87.9-18.15 87.65-17.9 87.65-17.75Q87.75-16.9 87.75-13.8L87.75-13.8Q87.75-11.85 87.7-10.25L87.7-10.25 87.65-6.7Q87.65-4.75 87.8-2.7L87.8-2.7Q87.85-1.55 88.3-1.18 88.75-0.8 89.95-0.8L89.95-0.8 90.85-0.85Q91.3-0.9 91.85-0.9L91.85-0.9Q93.3-0.9 93.3-0.25L93.3-0.25Q93.3 0.65 91.1 0.65L91.1 0.65 87 0.65ZM111.6 0.2Q111.2 0.2 111.03-0.1 110.85-0.4 110.7-1L110.7-1Q110.65-1.4 110.5-1.7L110.5-1.7 110.55-1.85Q110.15-4.2 108.85-7.6L108.85-7.6 107.95-10.2Q107.85-10.3 107-12.75L107-12.75 106.6-13.95Q102.1-27.85 100.95-29L100.95-29Q100.55-27.65 100.55-25.5L100.55-25.5Q100.55-24.35 100.6-23.5L100.6-23.5 100.65-21.55 100.6-20.35Q100.55-19.8 100.55-19.15L100.55-19.15Q100.55-18.05 100.65-17.25L100.65-17.25Q100.75-15.65 100.75-15.65L100.75-15.65 100.6-15.65Q100.6-7.3 100.95-6.45L100.95-6.45 100.95-1.95Q101.15-1.55 101.15-0.9L101.15-0.9Q101.15-0.5 100.88-0.2 100.6 0.1 100.2 0.1L100.2 0.1Q99.15 0.1 99.15-2.6L99.15-2.6 99.25-4.2Q99.35-4.95 99.35-5.85L99.35-5.85Q99.35-8.25 99.2-13.05L99.2-13.05Q99.05-17.85 99.05-20.25L99.05-20.25Q99.05-21.7 99.2-24.7L99.2-24.7Q99.35-27.65 99.35-29.1L99.35-29.1 99.35-29.75Q99.35-32.2 100.25-32.95L100.25-32.95 100.4-32.8 100.9-32.9Q101.1-32.85 101.35-32.6L101.35-32.6Q101.55-32.4 101.55-32.15L101.55-32.15 101.65-31.85Q101.65-31.75 101.68-31.68 101.7-31.6 101.7-31.6L101.7-31.6Q102.5-28.05 105.3-21.65L105.3-21.65Q108.15-14.9 108.85-12.7L108.85-12.7Q109.35-10.95 109.65-9.6L109.65-9.6Q110.6-5.35 111.9-3.05L111.9-3.05 112-3.2Q113.15-14.3 113.15-30.45L113.15-30.45 113.1-31.05Q113.05-31.3 113.05-31.7L113.05-31.7Q113.05-32.75 113.75-32.75L113.75-32.75Q114.2-32.75 114.53-32.3 114.85-31.85 114.85-31.3L114.85-31.3 114.85-27.95 114.6-27.55Q114.6-22.8 114.05-11.95 113.5-1.1 113-0.15L113-0.15 112.15 0.05 112.15 0.1 112.1 0.05 111.6 0.2ZM122.8 0.25Q122.4 0.25 122.4-1.1L122.4-1.1Q122.2-4.55 122.2-9.8L122.2-9.8Q122.2-13.1 122.25-15.7L122.25-15.7 122.3-21.6Q122.3-25.4 122.1-31L122.1-31Q121.65-31.4 121.65-32L121.65-32Q121.65-32.35 122.08-32.73 122.5-33.1 122.85-33.1L122.85-33.1Q123.25-33.1 123.6-32.7L123.6-32.7 124.15-32.25Q124.45-32.1 125.3-31.95L125.3-31.95Q126.15-31.8 126.5-31.65L126.5-31.65Q127.25-31.25 128.5-30.1L128.5-30.1Q129.7-28.9 130.15-28.6L130.15-28.6 130.1-28.5Q130.15-28.2 130.85-27.2L130.85-27.2Q131.4-26.45 131.75-25.8L131.75-25.8Q132.55-23.5 132.55-19.85L132.55-19.85Q132.55-19.2 132.5-18.7L132.5-18.7 132.5-17.5 132.5-17.1 132.45-16.6Q132.45-15.65 132.75-15.1L132.75-15.1Q132.45-13.5 132-9.05L132-9.05Q131.85-7.75 131.5-6.3 131.15-4.85 130.65-3.9L130.65-3.9Q129.35-1.45 126.3 0.25L126.3 0.25 122.8 0.25ZM124.55-1.2L126.1-1.2Q126.45-1.6 126.75-1.85L126.75-1.85Q126.75-1.85 127.1-2.1L127.1-2.1 127.5-2.45Q131-5.6 131-14.45L131-14.45 131-15.4Q130.95-15.8 130.95-16.25L130.95-16.25 130.75-21.3Q130.6-24.2 129-27.3L129-27.3Q128.25-28.85 126.98-29.83 125.7-30.8 124.3-30.8L124.3-30.8Q123.7-30.8 123.7-21.55L123.7-21.55Q123.7-10.85 124.3-2.9L124.3-2.9 124.25-1.95 124.45-1.85 124.55-1.2ZM150 0.1Q149.4 0.1 148.8-0.2 148.2-0.5 148.2-0.9L148.2-0.9Q148.2-1.2 148.6-1.9L148.6-1.9Q149-2.55 148.95-2.9L148.95-2.9 148.8-7.3 148.45-20.95 148.35-27Q148.3-32.55 148.1-33.95L148.1-33.95Q148-34.5 147.7-35.2L147.7-35.2Q147.35-36.15 147.35-36.55L147.35-36.55Q147.35-37.75 151.15-37.75L151.15-37.75 151.4-37.75Q153.95-37.75 155.8-36L155.8-36Q157.25-34.65 158.4-31.75L158.4-31.75Q159.2-29.45 159.6-26.6L159.6-26.6Q159.8-25.1 159.95-22L159.95-22 159.95-20.45Q159.95-17.35 159.13-13.73 158.3-10.1 156.8-6.95L156.8-6.95Q155.9-4.95 154.48-3.35 153.05-1.75 151.75-0.83 150.45 0.1 150 0.1L150 0.1ZM150.5-2.45L150.75-2.45Q152.6-3.4 154.05-5.23 155.5-7.05 156.35-9.25L156.35-9.25Q157.1-11.1 157.6-13.48 158.1-15.85 158.3-17.9L158.3-17.9Q158.45-19.7 158.45-21.35L158.45-21.35Q158.45-35.95 150.4-35.95L150.4-35.95Q149.35-35.95 149.35-35.4L149.35-35.4Q149.35-33.65 149.55-31.25L149.55-31.25Q149.75-28.8 149.75-27.1L149.75-27.1Q149.75-24.35 150.15-17.55L150.15-17.55Q150.5-11.65 150.5-8.05L150.5-8.05 150.5-2.45ZM167.8 0.65Q166.9 0.65 166.8-0.4L166.8-0.4 166.8-1.05Q166.85-1.3 166.85-1.65L166.85-1.65 166.65-1.85Q167.05-2.9 167.05-3.9L167.05-3.9Q167.05-5.05 166.9-7.2L166.9-7.2 166.8-10.5Q166.8-13 166.95-18L166.95-18Q167.15-22.45 167.15-25.55L167.15-25.55 167.05-28.55Q166.95-29.9 166.95-31.55L166.95-31.55Q166.95-32.3 167.3-32.63 167.65-32.95 168.4-32.95L168.4-32.95Q168.9-32.95 169.2-32.65L169.2-32.65Q169.3-32.6 170.65-32.45L170.65-32.45Q171.9-32.3 172.8-32L172.8-32Q173.75-31.7 173.75-31.25L173.75-31.25Q173.75-30.75 172.8-30.25L172.8-30.25Q169.95-31.2 168.75-31.2L168.75-31.2 168.5-30.9Q168.55-30.45 168.55-28.75L168.55-28.75Q168.55-26.6 168.45-24.9L168.45-24.9Q168.4-23.15 168.4-21L168.4-21Q168.4-19.6 169.1-19.6L169.1-19.6 169.9-19.65Q170.3-19.7 170.75-19.7L170.75-19.7Q172.7-19.7 172.7-18.8L172.7-18.8Q172.7-18.25 172.45-17.88 172.2-17.5 171.7-17.5L171.7-17.5Q170.95-17.5 170.55-17.9L170.55-17.9 168.95-18.15 168.7-18.15 168.45-17.9 168.45-17.75Q168.55-16.9 168.55-13.8L168.55-13.8Q168.55-11.85 168.5-10.25L168.5-10.25 168.45-6.7Q168.45-4.75 168.6-2.7L168.6-2.7Q168.65-1.55 169.1-1.18 169.55-0.8 170.75-0.8L170.75-0.8 171.65-0.85Q172.1-0.9 172.65-0.9L172.65-0.9Q174.1-0.9 174.1-0.25L174.1-0.25Q174.1 0.65 171.9 0.65L171.9 0.65 167.8 0.65ZM184.1 0.6L183.55 0.15Q183.55-3.7 182.33-11.2 181.1-18.7 179.1-27.6L179.1-27.6 178.7-29.15 178.05-31.45Q177.75-32.5 177.75-32.75L177.75-32.75Q177.75-32.9 177.98-33.13 178.2-33.35 178.4-33.35L178.4-33.35Q179.1-33.35 179.5-31.8L179.5-31.8Q179.7-31.15 179.88-30.33 180.05-29.5 180.15-29.15L180.15-29.15Q180.25-28.4 180.3-28.25L180.3-28.25Q181.25-24.4 181.45-23.35L181.45-23.35 181.95-20.8 182.4-18.4 182.85-15.85Q183-14.5 183.25-13.5L183.25-13.5 184-8.6Q184-8.4 184.35-6.05L184.35-6.05 184.7-3.6Q185.7-6.85 186.4-13.5L186.4-13.5Q187.1-19.7 188.4-25.95L188.4-25.95Q189.5-31.35 189.95-33.8L189.95-33.8 190.6-34.05Q190.8-34 190.98-33.85 191.15-33.7 191.15-33.55L191.15-33.55Q191.15-32.45 190.7-30.55L190.7-30.55 190.4-29.25 189.55-25.3Q188.8-22.05 188.53-20.3 188.25-18.55 187.9-15.25L187.9-15.25 187.8-14.1Q187.55-11.4 187.43-10.45 187.3-9.5 186.85-8L186.85-8Q186.45-6.5 186.2-5.35L186.2-5.35 186.1-4.2Q186-2.45 185.7-1.1L185.7-1.1Q185.3 0.6 184.1 0.6L184.1 0.6ZM184.65-3.25L184.65-3.45 184.6-3.35 184.65-3.25ZM198.4 0.65Q197.5 0.65 197.4-0.4L197.4-0.4 197.4-1.05Q197.45-1.3 197.45-1.65L197.45-1.65 197.25-1.85Q197.65-2.9 197.65-3.9L197.65-3.9Q197.65-5.05 197.5-7.2L197.5-7.2 197.4-10.5Q197.4-13 197.55-18L197.55-18Q197.75-22.45 197.75-25.55L197.75-25.55 197.65-28.55Q197.55-29.9 197.55-31.55L197.55-31.55Q197.55-32.3 197.9-32.63 198.25-32.95 199-32.95L199-32.95Q199.5-32.95 199.8-32.65L199.8-32.65Q199.9-32.6 201.25-32.45L201.25-32.45Q202.5-32.3 203.4-32L203.4-32Q204.35-31.7 204.35-31.25L204.35-31.25Q204.35-30.75 203.4-30.25L203.4-30.25Q200.55-31.2 199.35-31.2L199.35-31.2 199.1-30.9Q199.15-30.45 199.15-28.75L199.15-28.75Q199.15-26.6 199.05-24.9L199.05-24.9Q199-23.15 199-21L199-21Q199-19.6 199.7-19.6L199.7-19.6 200.5-19.65Q200.9-19.7 201.35-19.7L201.35-19.7Q203.3-19.7 203.3-18.8L203.3-18.8Q203.3-18.25 203.05-17.88 202.8-17.5 202.3-17.5L202.3-17.5Q201.55-17.5 201.15-17.9L201.15-17.9 199.55-18.15 199.3-18.15 199.05-17.9 199.05-17.75Q199.15-16.9 199.15-13.8L199.15-13.8Q199.15-11.85 199.1-10.25L199.1-10.25 199.05-6.7Q199.05-4.75 199.2-2.7L199.2-2.7Q199.25-1.55 199.7-1.18 200.15-0.8 201.35-0.8L201.35-0.8 202.25-0.85Q202.7-0.9 203.25-0.9L203.25-0.9Q204.7-0.9 204.7-0.25L204.7-0.25Q204.7 0.65 202.5 0.65L202.5 0.65 198.4 0.65ZM211.15 0.65Q210.45 0.65 210.3-0.5L210.3-0.5Q210.4-0.8 210.4-2.15L210.4-2.15Q210.4-6.75 210.55-15.8L210.55-15.8Q210.7-24.8 210.7-28.8L210.7-28.8 210.8-30.6 210.95-32.1Q210.95-32.45 211.3-32.45L211.3-32.45Q211.55-32.45 212-32.3L212-32.3 212.15-32.25Q212.15-31.15 212.1-30.25L212.1-30.25 212.1-28.3 212.1-22.85Q212.15-20.45 212.15-17.4L212.15-17.4Q212.1-17.15 212.1-16.3L212.1-16.3 212.05-15.25Q212-14.25 212-13.2L212-13.2Q212-12.05 212.05-11.1L212.05-11.1 212.1-8.95 211.95-8.55 212-8.6Q212-8.45 211.95-8.4L211.95-8.4 211.95-8.2Q211.95-7.8 212.1-7.5L212.1-7.5 211.95-2.7 211.95-2.4Q211.95-1.55 212-1.4L212-1.4Q212-1.15 212.25-1.15L212.25-1.15 214.85-1.05Q216-1.05 216.43-1.03 216.85-1 216.95-1L216.95-1 217.1-1Q217.35-1 217.6-0.73 217.85-0.45 217.85-0.15L217.85-0.15Q217.85 0.45 217.05 0.5L217.05 0.5Q216.2 0.45 212.9 0.45L212.9 0.45 213 0.5Q212.5 0.5 212.05 0.55L212.05 0.55Q211.65 0.65 211.15 0.65L211.15 0.65ZM227.9 0.95Q222.05 0.95 222.05-17.45L222.05-17.45 222.05-19.2Q222.05-33.15 225.65-33.15L225.65-33.15Q225.9-33.15 226.35-33L226.35-33Q227.95-32.45 229.5-32.3L229.5-32.3Q230.45-32.1 231.4-30.35L231.4-30.35Q232.45-28.55 232.98-25.6 233.5-22.65 233.5-19.55L233.5-19.55 233.4-19.3Q233.4-17.65 233.45-16.35L233.45-16.35 233.5-13.35Q233.5-10.8 233.3-8.75L233.3-8.75Q233-5.65 232.3-3.4L232.3-3.4Q231.85-2.05 231.28-1.15 230.7-0.25 229.85 0.35L229.85 0.35Q229.05 0.95 227.9 0.95L227.9 0.95ZM227.7-0.5Q229.65-0.5 230.6-3.25L230.6-3.25Q231.55-6.05 231.75-8.95L231.75-8.95Q231.95-11.95 231.95-13.75L231.95-13.75Q231.95-15.75 231.65-19.65L231.65-19.65Q231.4-24 231.4-25.55L231.4-25.55 231.2-25.95 231.3-26.2Q231.3-28.4 230.08-30 228.85-31.6 227.1-31.6L227.1-31.6Q224.8-31.6 224.35-29.4L224.35-29.4Q224.25-28.65 224.15-27.25L224.15-27.25Q224.15-23.55 223.85-22.2L223.85-22.2Q223.85-21.45 223.7-19.85L223.7-19.85 223.6-17.5Q223.6-16.4 223.65-15.55L223.65-15.55 223.7-13.55Q223.7-11.2 224.1-8.15L224.1-8.15Q224.4-5.9 224.8-4.35 225.2-2.8 225.95-1.7L225.95-1.7Q226.7-0.5 227.7-0.5L227.7-0.5ZM241.45 1L240.7 0.6Q240.15-2.55 240.15-6.6L240.15-6.6Q240.15-8.2 240.3-11.25L240.3-11.25 240.4-15.9Q240.05-16.6 240.05-17.05L240.05-17.05Q240.55-17.85 240.55-21.65L240.55-21.65Q240.55-30.75 240.3-31.35L240.3-31.35Q240.75-32.6 241-32.6L241-32.6 243.2-32.6Q243.75-32.6 244.78-32.08 245.8-31.55 246.5-30.95L246.5-30.95Q247.75-29.8 247.75-25.05L247.75-25.05Q247.75-22.5 247.6-21.15L247.6-21.15Q247.5-20.2 247.28-19.65 247.05-19.1 246.6-18.4L246.6-18.4Q245.85-17.25 244.05-16.4L244.05-16.4Q243.3-16 241.95-15.6L241.95-15.6 241.95-9.65Q241.95-8.4 242.2-4.75L242.2-4.75 242.3-3.15 242.4 0.1Q242.4 1 241.45 1L241.45 1ZM242.3-17.3Q243.75-17.3 244.75-18.65L244.75-18.65Q245.1-19.15 245.4-20 245.7-20.85 245.8-21.65L245.8-21.65Q246.1-23.1 246.1-25L246.1-25 246.1-26.35Q246.1-27.05 246.05-27.7 246-28.35 245.85-28.95L245.85-28.95Q245.65-29.6 245.33-30.03 245-30.45 244.45-30.75L244.45-30.75Q243.85-31.05 243-31.05L243-31.05Q242.4-31.05 242.15-30.75 241.9-30.45 241.9-29.7L241.9-29.7Q241.9-28.5 242.05-26.1L242.05-26.1 242.15-22.5Q242.15-21.2 242.05-20.15L242.05-20.15 241.95-17.8 242.3-17.3ZM254.1 0.65Q253.2 0.65 253.1-0.4L253.1-0.4 253.1-1.05Q253.15-1.3 253.15-1.65L253.15-1.65 252.95-1.85Q253.35-2.9 253.35-3.9L253.35-3.9Q253.35-5.05 253.2-7.2L253.2-7.2 253.1-10.5Q253.1-13 253.25-18L253.25-18Q253.45-22.45 253.45-25.55L253.45-25.55 253.35-28.55Q253.25-29.9 253.25-31.55L253.25-31.55Q253.25-32.3 253.6-32.63 253.95-32.95 254.7-32.95L254.7-32.95Q255.2-32.95 255.5-32.65L255.5-32.65Q255.6-32.6 256.95-32.45L256.95-32.45Q258.2-32.3 259.1-32L259.1-32Q260.05-31.7 260.05-31.25L260.05-31.25Q260.05-30.75 259.1-30.25L259.1-30.25Q256.25-31.2 255.05-31.2L255.05-31.2 254.8-30.9Q254.85-30.45 254.85-28.75L254.85-28.75Q254.85-26.6 254.75-24.9L254.75-24.9Q254.7-23.15 254.7-21L254.7-21Q254.7-19.6 255.4-19.6L255.4-19.6 256.2-19.65Q256.6-19.7 257.05-19.7L257.05-19.7Q259-19.7 259-18.8L259-18.8Q259-18.25 258.75-17.88 258.5-17.5 258-17.5L258-17.5Q257.25-17.5 256.85-17.9L256.85-17.9 255.25-18.15 255-18.15 254.75-17.9 254.75-17.75Q254.85-16.9 254.85-13.8L254.85-13.8Q254.85-11.85 254.8-10.25L254.8-10.25 254.75-6.7Q254.75-4.75 254.9-2.7L254.9-2.7Q254.95-1.55 255.4-1.18 255.85-0.8 257.05-0.8L257.05-0.8 257.95-0.85Q258.4-0.9 258.95-0.9L258.95-0.9Q260.4-0.9 260.4-0.25L260.4-0.25Q260.4 0.65 258.2 0.65L258.2 0.65 254.1 0.65ZM274.3 0.85L273.6 0.6Q273-0.05 272.3-2.85 271.6-5.65 271-9.15L271-9.15Q270.6-12 269.85-14.8L269.85-14.8Q269.25-17.3 268.7-17.3L268.7-17.3 268.55-17.3Q267.45-17.3 267.45-16.6L267.45-16.6Q267.45-13 267.85-5.65L267.85-5.65Q268.05-1.15 268.3-0.4L268.3-0.4 267.9 0.45 267.2 0.45 266.8 0.05Q266-23.05 266-31.45L266-31.45Q266-32 266.08-32.35 266.15-32.7 266.4-33L266.4-33Q266.6-33.35 267.1-33.35L267.1-33.35Q269.65-33.35 271.2-32.1 272.75-30.85 272.75-28.5L272.75-28.5 272.75-24.85Q272.75-23.9 272.13-22.3 271.5-20.7 270.75-19.35L270.75-19.35 270.1-18.1Q270.65-15.55 272.28-8.93 273.9-2.3 274.05-1.9L274.05-1.9Q274.1-1.85 274.18-1.65 274.25-1.45 274.5-1.05L274.5-1.05Q274.85-0.35 274.85 0.15L274.85 0.15Q274.85 0.85 274.3 0.85L274.3 0.85ZM267.7-18.55Q268.65-18.55 269.4-19.5 270.15-20.45 270.6-21.95L270.6-21.95Q271.4-25 271.4-26.8L271.4-26.8Q271.4-27.95 271.28-28.7 271.15-29.45 270.85-30.3L270.85-30.3Q270.25-32.05 268-32.05L268-32.05Q267.75-32.05 267.6-31.63 267.45-31.2 267.45-30.75L267.45-30.75Q267.45-27.4 267.55-24.7L267.55-24.7Q267.6-22 267.6-18.65L267.6-18.65 267.7-18.55Z" opacity="1" transform="matrix(1,0,0,1,0,0)" fill="#ffffff" class="slogan-text-1" data-fill-palette-color="secondary" id="text-1"></path></svg></g></svg></g></svg></g></svg></g></svg></g></svg></g></svg></g><g><path d="M0 123.6c0-68.262 55.338-123.6 123.6-123.6 39.235 0 74.201 18.282 96.843 46.791h-4.687c-22.006-26.374-55.121-43.156-92.156-43.156-66.255 0-119.965 53.71-119.965 119.965 0 66.255 53.71 119.965 119.965 119.965 37.035 0 70.15-16.782 92.156-43.156h4.687c-22.642 28.51-57.608 46.791-96.843 46.791-68.262 0-123.6-55.338-123.6-123.6z" fill="#ffffff" stroke="transparent" data-fill-palette-color="tertiary"></path></g></svg></g><defs></defs></svg><rect width="395.52" height="247.2" fill="none" stroke="none" visibility="hidden"></rect></g></svg></g></svg>