<svg xmlns="http://www.w3.org/2000/svg" version="1.1" xmlns:xlink="http://www.w3.org/1999/xlink" xmlns:svgjs="http://svgjs.dev/svgjs" width="1500" height="1500" viewBox="0 0 1500 1500"><rect width="1500" height="1500" fill="#000000"></rect><g transform="matrix(0.6666666666666666,0,0,0.6666666666666666,249.39393939393938,438.58569500674764)"><svg viewBox="0 0 396 247" data-background-color="#000000" preserveAspectRatio="xMidYMid meet" height="935" width="1500" xmlns="http://www.w3.org/2000/svg" xmlns:xlink="http://www.w3.org/1999/xlink"><g id="tight-bounds" transform="matrix(1,0,0,1,0.2400000000000091,-0.09999999999999432)"><svg viewBox="0 0 395.52 247.2" height="247.2" width="395.52"><rect width="395.52" height="247.2" fill="url(#dde17fe7-7343-455c-a937-ce84d28c2bc0)" mask="url(#1182b72e-3a0b-4ad0-98d8-522080a6851b)" data-fill-palette-color="tertiary"></rect><g><svg></svg></g><g><svg viewBox="0 0 395.52 247.2" height="247.2" width="395.52"><g transform="matrix(1,0,0,1,99.10708881355932,47.215199999999996)"><svg viewBox="0 0 197.30582237288135 152.7696" height="152.7696" width="197.30582237288135"><g><svg viewBox="0 0 197.30582237288135 152.7696" height="152.7696" width="197.30582237288135"><g><svg viewBox="0 0 197.30582237288135 152.7696" height="152.7696" width="197.30582237288135"><g><svg viewBox="0 0 197.30582237288135 152.7696" height="152.7696" width="197.30582237288135"><g id="textblocktransform"><svg viewBox="0 0 197.30582237288135 152.7696" height="152.7696" width="197.30582237288135" id="textblock"><g><svg viewBox="0 0 197.30582237288135 152.7696" height="152.7696" width="197.30582237288135"><g transform="matrix(1,0,0,1,0,0)"><svg width="197.30582237288135" viewBox="1.95 -28.66 37.209999999999994 28.81" height="152.7696" data-palette-color="url(#8a807fd9-dc8b-4134-9b6f-76251d4551fa)"></svg></g></svg></g></svg></g></svg></g></svg></g></svg></g></svg></g><g><path d="M222.253 0c68.262 0 123.6 55.338 123.6 123.6 0 68.262-55.338 123.6-123.6 123.6-30.402 0-58.24-10.976-79.768-29.183l11.147 0c19.26 14.022 42.974 22.294 68.621 22.295 25.647 0 49.361-8.272 68.621-22.295h5.993l0-4.667c25.723-21.409 42.097-53.667 42.097-89.75 0-36.083-16.374-68.341-42.097-89.75v-4.667l-5.993 0c-19.26-14.022-42.974-22.294-68.621-22.295-25.647 0-49.361 8.272-68.621 22.295l-11.147 0c21.528-18.206 49.366-29.183 79.768-29.183z" fill="url(#dde17fe7-7343-455c-a937-ce84d28c2bc0)" stroke="transparent" data-fill-palette-color="tertiary"></path></g></svg></g><defs></defs><mask id="51b91911-abdd-4435-bf0c-91dd285f6dd4"><g id="SvgjsG1718"><svg viewBox="0 0 395.52 247.2" height="247.2" width="395.52"><g><svg></svg></g><g><svg viewBox="0 0 395.52 247.2" height="247.2" width="395.52"><g transform="matrix(1,0,0,1,99.10708881355932,47.215199999999996)"><svg viewBox="0 0 197.30582237288135 152.7696" height="152.7696" width="197.30582237288135"><g><svg viewBox="0 0 197.30582237288135 152.7696" height="152.7696" width="197.30582237288135"><g><svg viewBox="0 0 197.30582237288135 152.7696" height="152.7696" width="197.30582237288135"><g><svg viewBox="0 0 197.30582237288135 152.7696" height="152.7696" width="197.30582237288135"><g id="SvgjsG1717"><svg viewBox="0 0 197.30582237288135 152.7696" height="152.7696" width="197.30582237288135" id="SvgjsSvg1716"><g><svg viewBox="0 0 197.30582237288135 152.7696" height="152.7696" width="197.30582237288135"><g transform="matrix(1,0,0,1,0,0)"><svg width="197.30582237288135" viewBox="1.95 -28.66 37.209999999999994 28.81" height="152.7696" data-palette-color="url(#8a807fd9-dc8b-4134-9b6f-76251d4551fa)"><path d="M2.64-26.81L2.73-28.66 11.18-28.66 21.44-5.27 20.56-5.27 30.62-28.66 38.53-28.66 38.67-26.81 35.64-26.17Q35.6-25.49 35.62-23.61 35.64-21.73 35.69-19.58L35.69-19.58 35.89-10.64Q35.94-8.2 35.99-6.57 36.04-4.93 36.08-3.98 36.13-3.03 36.18-2.49L36.18-2.49 39.16-1.86 39.06 0 28.71 0 28.56-1.86 31.54-2.49Q31.59-3.08 31.59-3.86 31.59-4.64 31.59-6.05 31.59-7.47 31.54-9.91L31.54-9.91 31.45-27.25 32.71-27.25 20.9 0.15 19.19 0.15 7.08-27.29 8.35-27.29 8.4-10.69Q8.4-6.64 8.42-4.81 8.45-2.98 8.5-2.54L8.5-2.54 11.82-1.86 11.67 0 2.1 0 1.95-1.86 5.27-2.54Q5.32-2.88 5.35-3.81 5.37-4.74 5.42-6.27 5.47-7.81 5.47-9.91L5.47-9.91 5.62-19.58Q5.66-21.73 5.64-23.51 5.62-25.29 5.62-26.12L5.62-26.12 2.64-26.81Z" opacity="1" transform="matrix(1,0,0,1,0,0)" fill="white" class="wordmark-text-0" id="SvgjsPath1715"></path></svg></g></svg></g></svg></g></svg></g></svg></g></svg></g></svg></g><g><path d="M222.253 0c68.262 0 123.6 55.338 123.6 123.6 0 68.262-55.338 123.6-123.6 123.6-30.402 0-58.24-10.976-79.768-29.183l11.147 0c19.26 14.022 42.974 22.294 68.621 22.295 25.647 0 49.361-8.272 68.621-22.295h5.993l0-4.667c25.723-21.409 42.097-53.667 42.097-89.75 0-36.083-16.374-68.341-42.097-89.75v-4.667l-5.993 0c-19.26-14.022-42.974-22.294-68.621-22.295-25.647 0-49.361 8.272-68.621 22.295l-11.147 0c21.528-18.206 49.366-29.183 79.768-29.183z" fill="black" stroke="transparent"></path></g></svg></g><defs><mask></mask></defs></svg><rect width="395.52" height="247.2" fill="black" stroke="none" visibility="hidden"></rect></g></mask><linearGradient x1="0" x2="1" y1="0.5" y2="0.5" id="8a807fd9-dc8b-4134-9b6f-76251d4551fa"><stop stop-color="#ffa62e" offset="0"></stop><stop stop-color="#f71b3d" offset="1"></stop></linearGradient><rect width="395.52" height="247.2" fill="url(#8a807fd9-dc8b-4134-9b6f-76251d4551fa)" mask="url(#51b91911-abdd-4435-bf0c-91dd285f6dd4)" data-fill-palette-color="primary"></rect><mask id="1182b72e-3a0b-4ad0-98d8-522080a6851b"><g id="SvgjsG1741"><svg viewBox="0 0 395.52 247.2" height="247.2" width="395.52"><g><svg></svg></g><g><svg viewBox="0 0 395.52 247.2" height="247.2" width="395.52"><g transform="matrix(1,0,0,1,99.10708881355932,47.215199999999996)"><svg viewBox="0 0 197.30582237288135 152.7696" height="152.7696" width="197.30582237288135"><g><svg viewBox="0 0 197.30582237288135 152.7696" height="152.7696" width="197.30582237288135"><g><svg viewBox="0 0 197.30582237288135 152.7696" height="152.7696" width="197.30582237288135"><g><svg viewBox="0 0 197.30582237288135 152.7696" height="152.7696" width="197.30582237288135"><g id="SvgjsG1740"><svg viewBox="0 0 197.30582237288135 152.7696" height="152.7696" width="197.30582237288135" id="SvgjsSvg1739"><g><svg viewBox="0 0 197.30582237288135 152.7696" height="152.7696" width="197.30582237288135"><g transform="matrix(1,0,0,1,0,0)"><svg width="197.30582237288135" viewBox="1.95 -28.66 37.209999999999994 28.81" height="152.7696" data-palette-color="url(#8a807fd9-dc8b-4134-9b6f-76251d4551fa)"></svg></g></svg></g></svg></g></svg></g></svg></g></svg></g></svg></g><g><path d="M222.253 0c68.262 0 123.6 55.338 123.6 123.6 0 68.262-55.338 123.6-123.6 123.6-30.402 0-58.24-10.976-79.768-29.183l11.147 0c19.26 14.022 42.974 22.294 68.621 22.295 25.647 0 49.361-8.272 68.621-22.295h5.993l0-4.667c25.723-21.409 42.097-53.667 42.097-89.75 0-36.083-16.374-68.341-42.097-89.75v-4.667l-5.993 0c-19.26-14.022-42.974-22.294-68.621-22.295-25.647 0-49.361 8.272-68.621 22.295l-11.147 0c21.528-18.206 49.366-29.183 79.768-29.183z" fill="white" stroke="transparent"></path></g></svg></g><defs><mask></mask></defs><mask><g id="SvgjsG1738"><svg viewBox="0 0 395.52 247.2" height="247.2" width="395.52"><g><svg></svg></g><g><svg viewBox="0 0 395.52 247.2" height="247.2" width="395.52"><g transform="matrix(1,0,0,1,99.10708881355932,47.215199999999996)"><svg viewBox="0 0 197.30582237288135 152.7696" height="152.7696" width="197.30582237288135"><g><svg viewBox="0 0 197.30582237288135 152.7696" height="152.7696" width="197.30582237288135"><g><svg viewBox="0 0 197.30582237288135 152.7696" height="152.7696" width="197.30582237288135"><g><svg viewBox="0 0 197.30582237288135 152.7696" height="152.7696" width="197.30582237288135"><g id="SvgjsG1737"><svg viewBox="0 0 197.30582237288135 152.7696" height="152.7696" width="197.30582237288135" id="SvgjsSvg1736"><g><svg viewBox="0 0 197.30582237288135 152.7696" height="152.7696" width="197.30582237288135"><g transform="matrix(1,0,0,1,0,0)"><svg width="197.30582237288135" viewBox="1.95 -28.66 37.209999999999994 28.81" height="152.7696" data-palette-color="url(#8a807fd9-dc8b-4134-9b6f-76251d4551fa)"><path d="M2.64-26.81L2.73-28.66 11.18-28.66 21.44-5.27 20.56-5.27 30.62-28.66 38.53-28.66 38.67-26.81 35.64-26.17Q35.6-25.49 35.62-23.61 35.64-21.73 35.69-19.58L35.69-19.58 35.89-10.64Q35.94-8.2 35.99-6.57 36.04-4.93 36.08-3.98 36.13-3.03 36.18-2.49L36.18-2.49 39.16-1.86 39.06 0 28.71 0 28.56-1.86 31.54-2.49Q31.59-3.08 31.59-3.86 31.59-4.64 31.59-6.05 31.59-7.47 31.54-9.91L31.54-9.91 31.45-27.25 32.71-27.25 20.9 0.15 19.19 0.15 7.08-27.29 8.35-27.29 8.4-10.69Q8.4-6.64 8.42-4.81 8.45-2.98 8.5-2.54L8.5-2.54 11.82-1.86 11.67 0 2.1 0 1.95-1.86 5.27-2.54Q5.32-2.88 5.35-3.81 5.37-4.74 5.42-6.27 5.47-7.81 5.47-9.91L5.47-9.91 5.62-19.58Q5.66-21.73 5.64-23.51 5.62-25.29 5.62-26.12L5.62-26.12 2.64-26.81Z" opacity="1" transform="matrix(1,0,0,1,0,0)" fill="black" class="wordmark-text-0" id="SvgjsPath1735"></path></svg></g></svg></g></svg></g></svg></g></svg></g></svg></g></svg></g><g><path d="M222.253 0c68.262 0 123.6 55.338 123.6 123.6 0 68.262-55.338 123.6-123.6 123.6-30.402 0-58.24-10.976-79.768-29.183l11.147 0c19.26 14.022 42.974 22.294 68.621 22.295 25.647 0 49.361-8.272 68.621-22.295h5.993l0-4.667c25.723-21.409 42.097-53.667 42.097-89.75 0-36.083-16.374-68.341-42.097-89.75v-4.667l-5.993 0c-19.26-14.022-42.974-22.294-68.621-22.295-25.647 0-49.361 8.272-68.621 22.295l-11.147 0c21.528-18.206 49.366-29.183 79.768-29.183z" fill="black" stroke="transparent"></path></g></svg></g><defs><mask></mask></defs></svg><rect width="395.52" height="247.2" fill="black" stroke="none" visibility="hidden"></rect></g></mask></svg><rect width="395.52" height="247.2" fill="black" stroke="none" visibility="hidden"></rect></g></mask><linearGradient x1="0" x2="1" y1="0.5" y2="0.5" id="dde17fe7-7343-455c-a937-ce84d28c2bc0"><stop stop-color="#ffa62e" offset="0"></stop><stop stop-color="#f71b3d" offset="1"></stop></linearGradient></svg><rect width="395.52" height="247.2" fill="none" stroke="none" visibility="hidden"></rect></g></svg></g></svg>